<svg version="1.2" xmlns="http://www.w3.org/2000/svg" viewBox="0 0 1538 1559" width="1538" height="1559">
	<title>default-svg</title>
	<style>
		.s0 { fill: #ed1c24 } 
		.s1 { fill: #ffffff } 
	</style>
	<g id="Layer">
		<path id="Layer" fill-rule="evenodd" class="s0" d="m1 0l1535.8 0.1 0.7 1558.4h-1536.5z"/>
		<path id="Layer" fill-rule="evenodd" class="s1" d="m1352.4 751.8c-34.9 66-142.4 271.9-291.4 458.8 172.9 189.7 263.6 195.1 343.1 206.3 72.4 10.3 114.1-13.2 133.3-28.4l0.1 125c-23.6 16.4-56.1 32.2-85.7 45h-308.8c-100.2-54.5-231.8-177.3-231.8-177.3l-1.7-5.4c-81.2 75.3-169.4 135.4-261.4 163.2-25.8 7.9-51.1 13.5-76.1 19.5h-371.9l-0.4-0.2c-87.2-32.1-155.8-93.9-198.7-192.1v-316.7c104.1-186.5 374-327.9 447.8-371.2-45.6-71.4-136-273.2-76-463.3 33.4-106.6 128.2-178.1 216.2-215h247.9c235.6 87 247 269 184.1 402.3-70.5 149.4-339.7 261.1-339.7 261.1 0 0 60 117.8 198.9 319.9 42.7 59.4 81.6 110.2 117.5 153.9 17.2-19.1 214.8-242.8 218.3-404.1 3-144.3-154.1-118.4-154.1-118.4v-54h475.1l0.1 52.9c-20.7 4.4-128.7 31.8-184.7 138.2zm-708.7-156.4c0 0 243.5-106.7 277.8-286.9 33.9-178.4-120.1-231.4-158.4-237.4-38.4-5.9-201.6 7.4-220.4 196.4-8.7 88.1 101 327.9 101 327.9zm195.4 720.9c0 0-140.2-149-350.8-545.8 0 0-318.5 141.4-273.4 425.5 48.9 310.2 397.4 327 624.2 120.3z"/>
	</g>
</svg>