
<svg
   xmlns:dc="http://purl.org/dc/elements/1.1/"
   xmlns:cc="http://creativecommons.org/ns#"
   xmlns:rdf="http://www.w3.org/1999/02/22-rdf-syntax-ns#"
   xmlns:svg="http://www.w3.org/2000/svg"
   xmlns="http://www.w3.org/2000/svg"
   xmlns:sodipodi="http://sodipodi.sourceforge.net/DTD/sodipodi-0.dtd"
   xmlns:inkscape="http://www.inkscape.org/namespaces/inkscape"
   id="Layer_1"
   viewBox="0 0 127.19999 109.40031"
   version="1.1"
   sodipodi:docname="Kimberly-Clark KC.svg"
   width="127.2"
   height="109.40031"
   inkscape:version="1.0.1 (3bc2e813f5, 2020-09-07)">
  <metadata
     id="metadata19">
    <rdf:RDF>
      <cc:Work
         rdf:about="">
        <dc:format>image/svg+xml</dc:format>
        <dc:type
           rdf:resource="http://purl.org/dc/dcmitype/StillImage" />
        <dc:title></dc:title>
      </cc:Work>
    </rdf:RDF>
  </metadata>
  <defs
     id="defs17" />
  <sodipodi:namedview
     pagecolor="#ffffff"
     bordercolor="#666666"
     borderopacity="1"
     objecttolerance="10"
     gridtolerance="10"
     guidetolerance="10"
     inkscape:pageopacity="0"
     inkscape:pageshadow="2"
     inkscape:window-width="1920"
     inkscape:window-height="1057"
     id="namedview15"
     showgrid="false"
     inkscape:zoom="0.96903185"
     inkscape:cx="354.25544"
     inkscape:cy="285.16355"
     inkscape:window-x="-8"
     inkscape:window-y="-8"
     inkscape:window-maximized="1"
     inkscape:current-layer="Layer_1" />
  <style
     id="style2">.st0{fill:#1a3561}.st1{fill:#fff}</style>
  <path
     class="st0"
     d="m 63.6,3.0503607e-4 c 35.1,0 63.6,24.49999996393 63.6,54.69999996393 0,30.2 -28.5,54.700005 -63.6,54.700005 C 28.5,109.40031 0,84.900305 0,54.700305 0,24.400305 28.4,-0.09969496 63.6,3.0503607e-4 Z M 51.8,12.000305 v 34.2 c -2.7,-6.2 -8.7,-11.7 -14.8,-15.4 H 11.3 c 8.3,6.2 21.5,15.9 21.5,23.7 0,3.9 -4.7,4.6 -7.4,4.6 H 9.2 v 18.6 h 25.4 c 5.7,0 13.9,-2.1 17.2,-10.8 v 24.9 h 23.6 v -24.9 c 3.3,8.8 11.5,10.8 17.2,10.8 H 118 v -18.6 h -16.2 c -2.7,0 -7.4,-0.8 -7.4,-4.6 0,-7.8 13.2,-17.5 21.5,-23.7 H 90.2 c -6.1,3.7 -12.1,9.2 -14.8,15.4 v -34.2 z"
     id="path4"
     sodipodi:nodetypes="cssscccccssccsccccsccssccccc" />
  <g
     id="g8"
     transform="translate(-63.3,-85.099695)" />
  <g
     id="g12"
     transform="translate(-63.3,-85.099695)" />
</svg>
